<?xml version="1.0" standalone="no"?>
<!DOCTYPE svg PUBLIC "-//W3C//DTD SVG 20010904//EN"
 "http://www.w3.org/TR/2001/REC-SVG-20010904/DTD/svg10.dtd">
<svg version="1.0" xmlns="http://www.w3.org/2000/svg"
 width="630.000000pt" height="300.000000pt" viewBox="0 0 630.000000 300.000000"
 preserveAspectRatio="xMidYMid meet">

<g transform="translate(0.000000,300.000000) scale(0.100000,-0.100000)"
fill="#000000" stroke="none">
<path d="M3800 2163 c-14 -2 -95 -15 -180 -30 -186 -31 -335 -35 -394 -10 -22
10 -40 16 -41 15 -11 -12 -197 -303 -209 -327 -43 -82 15 -180 141 -238 59
-27 169 -53 229 -53 38 0 44 4 88 59 109 140 319 328 503 451 45 30 82 60 83
66 0 19 -44 52 -85 63 -39 11 -85 12 -135 4z m-355 -178 c-3 -14 -7 -36 -10
-50 -5 -24 -3 -25 45 -25 55 0 54 2 44 -74 l-7 -46 -53 0 -53 0 -6 -37 c-13
-76 -11 -74 -73 -71 -31 2 -56 8 -56 13 1 6 5 29 9 53 l7 42 -52 0 -52 0 7 53
c4 28 9 55 12 60 2 4 26 7 53 7 52 0 51 -1 65 68 7 32 7 32 66 32 58 0 59 -1
54 -25z"/>
<path d="M2599 1953 c-13 -16 -12 -17 4 -4 16 13 21 21 13 21 -2 0 -10 -8 -17
-17z"/>
<path d="M2173 1855 c0 -44 2 -63 4 -42 4 33 7 37 34 37 27 0 29 -3 29 -35 0
-19 5 -35 10 -35 6 0 10 32 10 76 0 47 -4 73 -10 69 -5 -3 -10 -20 -10 -36 0
-27 -3 -30 -27 -27 -23 2 -29 9 -34 38 -4 22 -6 5 -6 -45z"/>
<path d="M2320 1915 c-18 -22 -22 -87 -8 -115 19 -35 53 -38 74 -5 19 30 15
112 -7 126 -21 13 -45 11 -59 -6z m55 -65 c0 -52 -1 -55 -25 -55 -22 0 -25 5
-28 44 -4 57 3 73 30 69 21 -3 23 -9 23 -58z"/>
<path d="M2435 1920 c-3 -5 3 -10 14 -10 19 0 21 -6 21 -65 0 -37 4 -65 10
-65 6 0 10 28 10 65 0 51 3 65 15 65 8 0 15 5 15 10 0 6 -18 10 -39 10 -22 0
-43 -4 -46 -10z"/>
<path d="M2567 1923 c-4 -3 -7 -37 -7 -75 l0 -68 43 2 c36 1 38 2 10 5 -29 4
-33 8 -33 33 0 24 5 29 28 33 l27 4 -27 2 c-23 1 -28 6 -28 26 0 21 5 25 31
25 17 0 28 4 24 10 -7 11 -58 14 -68 3z"/>
<path d="M2680 1856 c0 -44 4 -76 10 -76 6 0 10 30 10 69 0 39 -4 73 -10 76
-6 4 -10 -22 -10 -69z"/>
<path d="M2756 1914 c-19 -18 -19 -20 -6 -44 5 -10 21 -21 35 -24 18 -5 25
-13 25 -31 0 -20 -5 -25 -25 -25 -16 0 -25 6 -25 15 0 8 -4 15 -10 15 -15 0
-12 -16 6 -34 20 -20 38 -20 58 0 27 26 19 53 -19 71 -36 17 -47 46 -20 57 8
3 21 -1 29 -9 21 -21 29 -18 16 5 -13 24 -43 26 -64 4z"/>
<path d="M3836 1598 c-24 -32 -26 -32 -123 -36 -54 -2 -115 0 -136 6 -30 8
-37 8 -37 -4 0 -17 -4 -16 135 -14 l110 2 -30 -32 c-51 -54 -334 -194 -435
-215 l-35 -7 53 54 c28 29 52 59 52 66 0 20 -61 13 -125 -14 -33 -14 -67 -28
-75 -31 -11 -5 -10 -1 3 15 21 23 15 42 -12 42 -10 0 -77 -18 -150 -40 -72
-21 -149 -42 -169 -46 l-37 -7 20 22 c11 13 32 30 48 39 29 17 33 46 7 48 -8
0 -23 5 -34 9 -12 5 -77 -11 -200 -50 -228 -72 -228 -72 -308 -85 -78 -14
-108 -4 -108 35 0 31 59 98 115 131 89 52 216 81 229 52 6 -16 38 21 33 37 -6
16 -81 7 -159 -21 -89 -32 -131 -56 -181 -103 -91 -85 -90 -161 3 -161 34 0
197 39 269 65 61 21 71 19 37 -8 -34 -28 -30 -57 8 -57 14 0 66 20 117 45 87
42 118 50 91 23 -16 -16 -15 -45 1 -51 8 -3 72 14 143 38 71 24 145 47 164 50
l35 7 -20 -22 c-11 -12 -33 -29 -49 -37 -26 -13 -27 -16 -13 -30 14 -14 23
-11 89 25 77 42 167 76 176 67 3 -3 -14 -25 -37 -49 -44 -45 -51 -78 -19 -84
17 -3 182 65 310 129 l77 39 -25 -37 c-28 -42 -39 -76 -30 -98 11 -31 70 -16
254 62 7 3 12 -3 12 -15 0 -75 60 -71 148 11 33 32 42 73 21 94 -19 19 58 28
130 15 79 -13 100 -30 83 -67 -7 -14 -25 -34 -42 -43 -30 -17 -41 -42 -18 -42
7 0 49 18 93 40 92 46 155 61 155 37 0 -8 -7 -31 -15 -50 -21 -51 -19 -84 7
-98 31 -16 187 -1 366 37 17 3 32 11 32 16 0 5 -4 7 -9 4 -16 -10 -256 -46
-307 -46 -27 0 -59 6 -69 14 -19 13 -18 16 13 75 18 34 30 66 27 72 -10 15
-76 10 -139 -11 -33 -11 -60 -20 -60 -20 -1 0 -1 15 -1 33 0 27 -6 35 -35 49
-70 34 -330 36 -330 2 0 -10 12 -14 38 -14 37 0 72 -22 72 -47 0 -14 -39 -48
-77 -67 -63 -32 -71 -12 -18 41 33 33 38 53 13 53 -7 0 -21 -9 -33 -20 -50
-47 -272 -119 -288 -93 -13 21 32 79 119 153 l93 80 133 9 133 9 -123 -2 c-67
0 -122 0 -122 2 0 2 7 10 15 19 8 8 13 19 10 24 -11 18 -34 9 -59 -23z m-986
-175 c0 -11 -203 -103 -225 -103 -15 0 -15 2 -4 16 33 40 229 114 229 87z"/>
<path d="M1935 1596 c-57 -18 -103 -43 -161 -87 -47 -36 -55 -39 -125 -40 -42
-2 -84 3 -97 10 -18 10 -22 9 -22 -3 0 -24 20 -30 97 -27 40 1 73 0 73 -3 0
-3 -33 -30 -72 -60 -59 -43 -83 -55 -122 -59 -50 -5 -101 -34 -101 -58 0 -24
86 -17 124 10 39 28 64 25 207 -29 131 -50 248 -74 333 -68 62 5 119 23 108
35 -3 2 -14 0 -25 -6 -30 -16 -163 -13 -244 5 -39 9 -108 31 -153 49 -46 19
-102 39 -125 45 -49 13 -53 6 55 92 56 45 82 58 130 68 84 17 160 47 195 77
62 52 20 79 -75 49z m75 -27 c0 -20 -213 -99 -227 -85 -8 8 124 81 167 92 46
12 60 10 60 -7z m-490 -264 c0 -8 -58 -35 -75 -35 -25 0 -17 18 13 28 29 11
62 15 62 7z"/>
<path d="M1975 1442 c-83 -36 -129 -69 -159 -114 -34 -52 2 -61 125 -29 83 21
134 40 128 45 -2 3 -49 -6 -104 -20 -55 -13 -106 -22 -114 -19 -27 11 20 41
106 69 79 26 133 57 133 77 0 15 -72 9 -115 -9z m83 -4 c-5 -14 -146 -70 -162
-65 -18 6 119 72 157 76 5 1 7 -5 5 -11z"/>
<path d="M2122 998 c-7 -7 -12 -30 -12 -53 0 -46 13 -65 47 -65 19 0 23 5 23
30 0 22 -5 30 -17 30 -15 0 -15 -2 -4 -9 17 -11 7 -41 -13 -41 -29 0 -37 79
-10 101 14 11 18 10 30 -6 8 -10 14 -14 14 -9 0 13 -21 34 -35 34 -6 0 -16 -5
-23 -12z"/>
<path d="M2277 1003 c-4 -3 -7 -33 -7 -65 0 -57 0 -58 28 -57 23 2 24 2 5 6
-16 3 -23 11 -23 28 0 17 7 25 23 28 l22 4 -22 2 c-16 1 -23 7 -23 21 0 12 10
24 23 30 21 8 21 9 1 9 -11 1 -24 -2 -27 -6z"/>
<path d="M2627 1003 c-4 -3 -7 -33 -7 -65 0 -57 0 -58 28 -57 23 2 24 2 5 6
-16 3 -23 11 -23 28 0 17 7 25 23 28 l22 4 -22 2 c-17 1 -23 7 -23 25 0 18 7
26 23 29 20 4 20 4 1 6 -11 0 -24 -2 -27 -6z"/>
<path d="M2967 1003 c-11 -10 -8 -123 3 -123 6 0 10 13 10 29 0 23 5 31 23 34
l22 4 -22 2 c-17 1 -23 7 -23 25 0 18 7 26 23 29 20 4 20 4 -4 6 -14 0 -29 -2
-32 -6z"/>
<path d="M3268 1003 c27 -5 27 -13 2 -63 -27 -53 -25 -60 13 -59 30 2 30 2 5
6 -16 2 -28 6 -28 9 0 3 11 27 25 53 26 52 21 63 -23 60 -10 -1 -8 -4 6 -6z"/>
<path d="M3397 1003 c-4 -3 -7 -33 -7 -65 0 -57 0 -58 28 -57 23 2 24 2 5 6
-16 3 -23 11 -23 28 0 17 7 25 23 28 l22 4 -22 2 c-16 1 -23 7 -23 21 0 12 10
24 23 30 21 8 21 9 1 9 -11 1 -24 -2 -27 -6z"/>
<path d="M3697 1003 c-4 -3 -7 -33 -7 -65 0 -54 2 -58 23 -58 33 0 47 18 47
61 0 49 -39 87 -63 62z m37 -19 c30 -29 15 -94 -21 -94 -9 0 -13 17 -13 55 0
57 8 66 34 39z"/>
<path d="M4212 998 c-19 -19 -15 -31 20 -60 27 -22 31 -29 20 -40 -10 -10 -16
-10 -33 1 -18 10 -20 10 -17 -1 6 -18 49 -23 59 -6 15 23 10 37 -21 53 -30 16
-39 38 -19 51 6 3 16 1 22 -5 17 -17 31 -13 17 4 -15 18 -32 19 -48 3z"/>
<path d="M4614 985 c-21 -32 -11 -89 19 -110 19 -13 20 -17 7 -26 -13 -9 -13
-10 0 -6 8 2 15 11 15 20 0 9 6 22 13 29 6 6 12 17 12 22 0 6 -7 3 -15 -8 -23
-31 -45 -13 -45 38 0 50 16 68 36 41 8 -10 17 -16 20 -12 9 9 -15 37 -32 37
-7 0 -21 -11 -30 -25z"/>
<path d="M1447 948 c9 -29 19 -57 23 -62 5 -5 16 17 25 48 9 32 15 60 12 63
-3 2 -12 -17 -20 -44 l-14 -48 -13 48 c-7 26 -16 47 -20 47 -4 0 -1 -24 7 -52z"/>
<path d="M1593 940 c0 -36 2 -50 4 -32 2 17 2 47 0 65 -2 17 -4 3 -4 -33z"/>
<path d="M1692 943 c-2 -63 -2 -63 26 -62 22 1 23 2 5 6 -19 4 -23 12 -26 61
l-3 57 -2 -62z"/>
<path d="M1822 943 c3 -57 4 -58 33 -60 20 -1 23 0 8 4 -20 4 -23 10 -23 59 0
31 -4 54 -10 54 -7 0 -10 -22 -8 -57z"/>
<path d="M1968 941 c-8 -33 -11 -58 -6 -55 4 3 8 12 8 20 0 22 38 17 45 -7 4
-11 9 -18 12 -15 7 7 -26 116 -36 116 -4 0 -15 -27 -23 -59z m34 14 c4 -17 1
-25 -8 -25 -14 0 -19 31 -7 43 9 10 10 9 15 -18z"/>
<path d="M3109 940 c-9 -33 -12 -60 -9 -60 4 0 10 9 13 20 7 27 35 25 47 -2
13 -33 12 -10 -3 46 -7 27 -17 51 -23 53 -5 2 -16 -24 -25 -57z m40 -2 c1 -5
-6 -8 -14 -8 -16 0 -19 9 -8 36 6 16 7 16 14 -2 4 -10 8 -22 8 -26z"/>
<path d="M3532 938 l1 -63 6 50 6 50 20 -47 c11 -27 23 -48 28 -48 4 0 6 28 5
63 l-1 62 -6 -50 -6 -50 -20 47 c-11 27 -23 48 -27 48 -5 0 -7 -28 -6 -62z"/>
<path d="M3856 953 c-17 -49 -22 -95 -6 -55 5 12 16 22 25 22 9 0 20 -10 25
-22 5 -13 9 -17 9 -10 1 22 -21 102 -29 107 -5 3 -15 -16 -24 -42z m33 -15 c1
-5 -6 -8 -15 -8 -11 0 -14 5 -10 16 3 9 6 21 7 27 0 12 17 -20 18 -35z"/>
<path d="M4354 945 c1 -60 1 -60 31 -60 30 0 30 0 31 60 l1 60 -6 -55 c-5 -46
-9 -55 -26 -55 -17 0 -21 9 -26 55 l-6 55 1 -60z"/>
<path d="M4513 940 c0 -36 2 -50 4 -32 2 17 2 47 0 65 -2 17 -4 3 -4 -33z"/>
<path d="M4769 941 c-8 -33 -12 -58 -7 -55 4 3 8 12 8 20 0 23 40 16 50 -8 13
-33 12 -10 -3 46 -7 27 -17 51 -23 53 -5 2 -16 -24 -25 -56z m40 -3 c1 -5 -6
-8 -14 -8 -16 0 -19 9 -8 36 6 16 7 16 14 -2 4 -10 8 -22 8 -26z"/>
</g>
</svg>
