<?xml version="1.0" standalone="no"?>
<!DOCTYPE svg PUBLIC "-//W3C//DTD SVG 20010904//EN"
 "http://www.w3.org/TR/2001/REC-SVG-20010904/DTD/svg10.dtd">
<svg version="1.0" xmlns="http://www.w3.org/2000/svg"
 width="630.000000pt" height="300.000000pt" viewBox="0 0 630.000000 300.000000"
 preserveAspectRatio="xMidYMid meet">

<g transform="translate(0.000000,300.000000) scale(0.100000,-0.100000)"
fill="#000000" stroke="none">
<path d="M3513 1770 c-84 -17 -150 -70 -186 -149 -18 -39 -21 -66 -22 -171 0
-119 1 -128 30 -185 38 -75 93 -119 172 -135 64 -14 189 -8 240 10 l31 11 -20
60 c-16 48 -24 59 -37 53 -104 -44 -174 -44 -222 2 -38 36 -49 79 -49 189 0
110 24 169 80 198 41 21 120 18 168 -7 l31 -16 20 55 c12 31 21 59 21 64 0 10
-126 31 -177 30 -21 -1 -57 -5 -80 -9z"/>
<path d="M2426 1728 c-75 -180 -236 -579 -236 -583 0 -3 35 -5 77 -3 l77 3 25
78 25 78 106 -3 105 -3 24 -77 25 -78 78 0 c43 0 78 3 78 8 0 4 -52 142 -114
307 l-114 300 -71 3 -72 3 -13 -33z m81 -316 c-33 -2 -62 -1 -64 2 -5 4 43
159 55 180 3 6 20 -33 37 -85 l32 -94 -60 -3z"/>
<path d="M2870 1450 l0 -310 195 0 195 0 0 55 0 55 -125 0 -125 0 0 255 0 255
-70 0 -70 0 0 -310z"/>
<path d="M3850 1705 l0 -55 80 0 80 0 0 -255 0 -255 75 0 75 0 0 255 0 254 83
3 82 3 3 53 3 52 -240 0 -241 0 0 -55z"/>
<path d="M4410 1450 l0 -310 195 0 195 0 0 55 0 55 -125 0 -126 0 3 78 3 77
108 3 107 3 0 54 0 55 -110 0 -111 0 3 68 3 67 118 0 117 0 0 53 0 52 -190 0
-190 0 0 -310z"/>
<path d="M4910 1450 l0 -310 195 0 195 0 0 55 0 54 -122 3 -123 3 0 252 0 253
-72 0 -73 0 0 -310z"/>
<path d="M1257 1453 c-64 -164 -119 -306 -123 -316 -6 -16 1 -18 95 -15 l102
3 75 189 75 189 -47 124 c-26 67 -51 123 -54 123 -3 0 -59 -134 -123 -297z"/>
</g>
</svg>
