<?xml version="1.0" standalone="no"?>
<!DOCTYPE svg PUBLIC "-//W3C//DTD SVG 20010904//EN"
 "http://www.w3.org/TR/2001/REC-SVG-20010904/DTD/svg10.dtd">
<svg version="1.0" xmlns="http://www.w3.org/2000/svg"
 width="630.000000pt" height="300.000000pt" viewBox="0 0 630.000000 300.000000"
 preserveAspectRatio="xMidYMid meet">

<g transform="translate(0.000000,300.000000) scale(0.100000,-0.100000)"
fill="#000000" stroke="none">
<path d="M1470 1963 l0 -128 125 125 c69 69 125 126 125 127 0 2 -56 3 -125 3
l-125 0 0 -127z"/>
<path d="M1925 1900 c104 -104 191 -190 192 -190 2 0 3 86 3 190 l0 190 -192
0 -193 0 190 -190z"/>
<path d="M4492 2029 c-94 -18 -143 -68 -149 -151 -6 -81 22 -116 156 -197 80
-49 68 -137 -21 -155 -23 -4 -60 3 -153 29 -18 5 -22 0 -31 -45 -10 -50 -10
-52 13 -61 54 -20 155 -30 210 -19 112 20 163 75 163 176 0 75 -23 114 -95
162 -92 60 -115 82 -115 107 0 13 10 31 22 39 26 19 101 21 147 5 39 -14 48
-7 57 48 l6 42 -38 9 c-64 17 -126 21 -172 11z"/>
<path d="M2374 2015 c-2 -5 -19 -127 -39 -270 -19 -143 -38 -273 -41 -289 l-6
-29 138 6 c161 7 219 23 263 72 55 63 47 179 -16 220 l-25 17 28 19 c82 53 83
173 3 230 -31 22 -47 24 -168 29 -85 3 -135 1 -137 -5z m209 -101 c26 -8 39
-49 26 -78 -14 -31 -49 -46 -105 -46 -41 0 -44 2 -40 23 3 12 8 40 11 62 4 22
9 44 12 48 5 8 53 3 96 -9z m4 -250 c8 -11 13 -34 11 -53 -4 -45 -38 -69 -112
-77 l-59 -7 8 68 c9 83 12 93 33 97 35 7 106 -10 119 -28z"/>
<path d="M2845 2005 c-3 -11 -20 -130 -40 -265 -19 -135 -37 -260 -40 -277
l-6 -33 60 0 c70 0 61 -22 91 220 12 91 25 174 29 185 6 15 25 -31 75 -180 36
-110 70 -206 75 -213 5 -9 29 -12 82 -10 l73 3 43 285 c23 157 41 289 39 295
-2 7 -105 9 -113 2 -1 -1 -14 -90 -29 -197 -15 -107 -30 -198 -33 -202 -4 -4
-38 83 -77 195 l-71 202 -77 5 c-71 5 -77 3 -81 -15z"/>
<path d="M3409 2025 c-4 0 -84 -587 -80 -590 8 -9 205 -5 269 5 121 20 196 72
240 169 47 103 28 266 -41 339 -50 54 -92 66 -245 72 -78 3 -142 5 -143 5z
m256 -130 c47 -27 54 -39 65 -103 16 -100 -23 -193 -98 -231 -38 -19 -143 -38
-160 -28 -6 4 35 340 47 385 1 1 24 2 53 2 36 0 63 -7 93 -25z"/>
<path d="M4134 2022 l-171 -2 -37 -273 c-21 -149 -40 -282 -43 -294 l-5 -23
176 0 c133 0 178 3 180 13 3 6 7 29 10 50 l5 37 -109 0 c-60 0 -111 4 -114 8
-3 5 0 41 6 80 l10 72 104 0 104 0 0 28 c0 15 3 37 6 50 6 22 5 22 -96 22
l-103 0 7 46 c3 26 6 55 6 65 0 17 10 19 115 19 l114 0 6 34 c14 74 20 71
-171 68z"/>
<path d="M1563 1829 c-24 -12 -54 -34 -68 -51 -24 -29 -25 -34 -25 -184 l0
-154 163 0 163 0 26 28 c56 59 77 134 58 211 -14 60 -69 127 -124 152 -56 26
-140 25 -193 -2z"/>
<path d="M1995 1560 l-120 -120 123 0 122 0 0 120 c0 66 -1 120 -3 120 -1 0
-56 -54 -122 -120z"/>
<path d="M1840 1313 c-1 -5 -11 -56 -24 -116 -22 -98 -21 -142 2 -102 8 15 10
15 21 1 20 -24 59 -19 87 9 21 21 25 33 22 72 -2 39 -8 50 -27 60 -17 8 -30 9
-44 2 -26 -15 -29 -8 -18 40 7 33 6 41 -5 41 -8 0 -14 -3 -14 -7z m79 -111
c12 -22 4 -60 -17 -84 -19 -22 -36 -23 -57 -1 -18 17 -15 64 6 90 16 19 57 16
68 -5z"/>
<path d="M3915 1308 c-2 -7 -13 -59 -25 -116 -21 -97 -21 -128 -1 -106 7 8 51
200 51 224 0 14 -20 12 -25 -2z"/>
<path d="M1553 1295 c-70 -30 -98 -141 -48 -190 48 -49 131 -22 161 51 20 48
17 89 -8 118 -29 32 -64 39 -105 21z m85 -33 c28 -37 2 -128 -44 -153 -62 -33
-109 53 -69 127 28 52 82 65 113 26z"/>
<path d="M3297 1303 c-12 -11 -8 -23 7 -23 8 0 16 7 20 15 5 15 -14 21 -27 8z"/>
<path d="M2033 1240 c-31 -12 -29 -24 1 -16 33 8 56 -2 56 -25 0 -15 -7 -19
-33 -19 -43 0 -77 -25 -77 -56 0 -33 42 -54 72 -35 17 11 22 10 29 0 12 -19
16 -11 30 59 11 53 11 64 -1 76 -21 20 -52 26 -77 16z m57 -90 c0 -14 -38 -50
-53 -50 -23 0 -37 21 -26 42 10 19 79 27 79 8z"/>
<path d="M2993 1243 c-13 -2 -23 -9 -23 -15 0 -6 10 -8 26 -4 28 7 54 -7 54
-30 0 -9 -12 -14 -33 -14 -60 0 -100 -53 -65 -88 16 -16 51 -15 66 0 10 10 15
10 22 -2 7 -11 11 -9 18 10 18 48 22 106 9 122 -14 19 -43 27 -74 21z m45
-108 c-14 -32 -45 -42 -66 -22 -22 23 1 47 44 47 32 0 33 -1 22 -25z"/>
<path d="M3753 1240 c-31 -12 -29 -24 1 -16 33 8 56 -2 56 -25 0 -15 -7 -19
-33 -19 -43 0 -77 -25 -77 -56 0 -33 42 -54 73 -35 15 10 22 11 25 2 9 -26 21
-7 32 55 11 55 10 68 -1 79 -20 19 -51 25 -76 15z m57 -90 c0 -15 -38 -50 -54
-50 -7 0 -19 7 -26 15 -10 12 -10 18 0 30 14 17 80 21 80 5z"/>
<path d="M2176 1223 c-12 -46 -27 -135 -23 -140 12 -11 25 9 31 49 9 57 31 88
60 88 32 0 38 -20 24 -80 -12 -51 -6 -72 13 -53 6 6 11 42 12 79 l2 69 -33 3
c-18 2 -40 -2 -48 -9 -10 -8 -14 -8 -14 0 0 18 -18 13 -24 -6z"/>
<path d="M2362 1217 c-32 -34 -31 -101 2 -122 28 -19 77 -16 84 4 3 9 -1 11
-16 6 -46 -14 -84 34 -61 77 16 31 28 38 67 38 17 0 32 5 32 10 0 6 -19 10
-43 10 -33 0 -49 -6 -65 -23z"/>
<path d="M2522 1233 c-18 -7 -42 -57 -42 -88 0 -33 33 -65 69 -65 65 0 112 82
77 135 -13 20 -25 25 -54 24 -20 0 -43 -3 -50 -6z m80 -27 c24 -34 -11 -106
-50 -106 -46 0 -57 66 -18 105 25 25 52 25 68 1z"/>
<path d="M2785 1228 c-9 -26 -25 -104 -25 -125 0 -42 18 -24 30 30 14 59 34
87 62 87 26 0 33 -25 21 -82 -6 -29 -6 -51 -1 -54 14 -9 18 -1 30 64 9 48 9
64 -2 76 -15 19 -61 21 -78 4 -9 -9 -12 -9 -12 0 0 16 -19 15 -25 0z"/>
<path d="M3135 1215 c-52 -51 -20 -140 47 -133 17 2 33 9 36 17 3 9 -1 11 -16
6 -35 -10 -62 11 -62 49 0 41 26 66 68 66 18 0 32 5 32 10 0 6 -18 10 -40 10
-30 0 -47 -7 -65 -25z"/>
<path d="M3270 1170 c-14 -74 -14 -79 -3 -82 8 -3 26 53 37 115 5 28 4 37 -7
37 -9 0 -18 -23 -27 -70z"/>
<path d="M3362 1217 c-51 -54 -27 -137 39 -137 68 0 117 101 71 143 -27 25
-84 22 -110 -6z m96 -39 c5 -60 -46 -98 -82 -62 -20 20 -20 53 0 82 12 17 24
22 47 20 29 -3 32 -7 35 -40z"/>
<path d="M3547 1233 c-9 -17 -29 -144 -23 -150 10 -10 17 3 27 49 14 60 35 90
62 86 20 -3 22 -8 19 -70 -1 -38 2 -68 7 -68 22 0 40 122 21 145 -15 18 -61
20 -78 3 -9 -9 -12 -9 -12 0 0 13 -16 16 -23 5z"/>
<path d="M1626 982 c-3 -5 -8 -28 -12 -50 -6 -41 -17 -52 -29 -32 -7 11 -45
13 -70 4 -21 -9 -45 -56 -45 -92 0 -48 50 -77 90 -52 9 6 17 5 22 -3 13 -21
25 5 42 98 10 50 20 100 23 113 5 21 -10 31 -21 14z m-38 -121 c6 -39 -7 -71
-33 -83 -48 -22 -75 40 -39 90 22 31 68 27 72 -7z"/>
<path d="M2087 983 c-3 -5 -8 -27 -12 -50 -7 -42 -17 -53 -30 -33 -11 17 -64
11 -84 -9 -29 -29 -37 -85 -17 -116 17 -26 45 -32 77 -15 13 8 19 7 19 0 0 -7
5 -10 12 -8 10 4 56 185 58 226 0 13 -16 17 -23 5z m-39 -131 c6 -59 -42 -104
-76 -70 -33 33 1 111 46 106 22 -2 28 -9 30 -36z"/>
<path d="M3180 933 c-7 -32 -18 -84 -25 -115 -8 -37 -10 -60 -3 -64 15 -9 16
-5 38 102 11 54 23 107 26 117 3 11 0 17 -10 17 -10 0 -18 -18 -26 -57z"/>
<path d="M3430 964 c0 -9 5 -14 12 -12 18 6 21 28 4 28 -9 0 -16 -7 -16 -16z"/>
<path d="M4158 935 c-6 -14 -17 -25 -25 -25 -7 0 -13 -4 -13 -10 0 -5 5 -10
10 -10 7 0 8 -23 4 -64 -6 -60 -5 -64 16 -71 12 -4 27 -2 33 4 8 8 7 11 -5 11
-23 0 -27 20 -15 73 7 34 15 47 28 47 10 0 21 5 24 10 3 6 -4 10 -15 10 -19 0
-21 4 -16 25 4 15 2 25 -4 25 -6 0 -16 -11 -22 -25z"/>
<path d="M1685 885 c-31 -30 -34 -93 -7 -118 49 -45 132 2 132 74 0 21 -7 45
-16 53 -24 25 -81 20 -109 -9z m91 -6 c12 -21 6 -70 -12 -90 -23 -26 -50 -24
-69 5 -14 22 -15 28 -1 60 12 30 20 36 45 36 16 0 33 -5 37 -11z"/>
<path d="M2162 904 c-18 -8 -42 -58 -42 -89 0 -39 34 -67 77 -63 20 2 38 8 40
14 2 7 -8 9 -27 6 -34 -5 -60 12 -60 39 0 16 8 19 54 19 60 0 72 12 52 51 -8
18 -21 25 -46 26 -19 1 -41 -1 -48 -3z m66 -16 c7 -7 12 -20 12 -30 0 -14 -8
-18 -39 -18 -49 0 -57 10 -30 38 22 25 39 28 57 10z"/>
<path d="M2322 898 c-20 -20 -14 -42 20 -69 28 -24 31 -29 18 -44 -8 -10 -25
-15 -41 -13 -16 1 -30 -2 -31 -7 -2 -6 14 -11 34 -13 27 -2 43 3 57 17 32 32
29 38 -34 86 -19 14 -19 16 -2 29 9 7 28 11 42 8 15 -2 25 0 25 7 0 15 -73 14
-88 -1z"/>
<path d="M2472 903 c-18 -7 -42 -57 -42 -88 0 -39 34 -67 77 -63 20 2 38 8 40
14 2 7 -8 9 -27 6 -34 -5 -60 12 -60 39 0 16 8 19 55 19 54 0 55 1 55 28 0 15
-5 33 -12 40 -12 12 -62 15 -86 5z m66 -15 c7 -7 12 -20 12 -30 0 -14 -8 -18
-39 -18 -48 0 -58 13 -31 40 23 23 41 25 58 8z"/>
<path d="M2620 843 c-7 -38 -15 -74 -18 -80 -2 -7 2 -13 10 -13 10 0 19 19 27
54 13 58 39 90 68 84 20 -4 24 -46 9 -105 -6 -26 -4 -33 7 -33 20 0 42 112 27
140 -12 23 -59 27 -78 8 -9 -9 -12 -9 -12 0 0 7 -6 12 -13 12 -8 0 -18 -25
-27 -67z"/>
<path d="M2803 888 c3 -13 9 -49 12 -80 10 -81 30 -78 80 14 51 92 49 88 33
88 -8 0 -29 -30 -48 -67 l-34 -68 -9 68 c-7 49 -13 67 -24 67 -11 0 -14 -7
-10 -22z"/>
<path d="M2981 886 c-47 -50 -21 -136 41 -136 67 0 116 101 70 143 -28 26 -84
22 -111 -7z m97 -34 c4 -40 -21 -82 -48 -82 -31 0 -53 29 -46 63 9 44 25 58
60 55 27 -3 31 -7 34 -36z"/>
<path d="M3245 843 c13 -121 26 -123 88 -13 30 52 41 80 32 80 -8 0 -28 -27
-46 -60 -17 -33 -36 -60 -40 -60 -5 0 -9 17 -9 38 0 48 -10 82 -22 82 -7 0 -8
-24 -3 -67z"/>
<path d="M3416 893 c-25 -91 -31 -161 -10 -141 7 7 33 117 34 141 0 9 -4 17
-9 17 -5 0 -12 -8 -15 -17z"/>
<path d="M3496 893 c-12 -46 -27 -135 -23 -140 12 -11 25 9 31 49 9 58 32 90
59 86 24 -3 26 -19 12 -97 -12 -64 15 -50 30 17 14 58 29 82 55 82 25 0 29
-19 18 -78 -11 -53 -5 -79 12 -52 12 20 24 116 16 135 -7 18 -57 20 -74 3 -9
-9 -15 -9 -24 0 -7 7 -24 12 -38 12 -14 0 -31 -5 -38 -12 -9 -9 -12 -9 -12 0
0 18 -18 14 -24 -5z"/>
<path d="M3771 884 c-30 -38 -28 -99 3 -119 27 -18 77 -17 83 1 2 6 -7 9 -25
6 -30 -4 -66 21 -59 42 2 6 29 12 60 14 49 3 57 6 57 23 0 41 -19 59 -60 59
-30 0 -43 -6 -59 -26z m84 0 c24 -25 13 -39 -33 -42 -47 -3 -53 7 -22 38 24
24 34 25 55 4z"/>
<path d="M3935 834 c-9 -41 -14 -78 -12 -81 12 -11 26 10 32 50 9 56 30 87 59
87 32 0 38 -20 25 -81 -11 -52 -7 -71 12 -52 6 6 11 42 12 79 2 68 2 69 -25
72 -15 2 -36 -2 -48 -8 -13 -7 -20 -7 -20 0 0 5 -4 10 -9 10 -5 0 -17 -34 -26
-76z"/>
<path d="M4272 903 c-18 -7 -42 -57 -42 -88 0 -33 33 -65 69 -65 65 0 112 82
77 135 -13 20 -25 25 -54 24 -20 0 -43 -3 -50 -6z m76 -25 c18 -18 14 -62 -8
-86 -36 -38 -80 -23 -80 28 0 54 55 91 88 58z"/>
</g>
</svg>
