<?xml version="1.0" standalone="no"?>
<!DOCTYPE svg PUBLIC "-//W3C//DTD SVG 20010904//EN"
 "http://www.w3.org/TR/2001/REC-SVG-20010904/DTD/svg10.dtd">
<svg version="1.0" xmlns="http://www.w3.org/2000/svg"
 width="760.000000pt" height="395.000000pt" viewBox="0 0 760.000000 395.000000"
 preserveAspectRatio="xMidYMid meet">

<g transform="translate(0.000000,395.000000) scale(0.100000,-0.100000)"
fill="#000000" stroke="none">
<path d="M3267 3910 c-319 -19 -623 -59 -927 -120 -1159 -234 -2026 -774
-2274 -1415 -57 -148 -69 -230 -63 -429 6 -203 19 -260 106 -441 77 -158 161
-275 301 -416 420 -423 1109 -746 1950 -913 426 -85 780 -118 1420 -132 523
-11 987 27 1460 122 1170 233 2045 774 2294 1419 52 135 66 221 66 397 0 117
-5 172 -19 234 -76 314 -294 612 -636 869 -617 464 -1565 756 -2640 815 -263
14 -867 20 -1038 10z m-1816 -1604 c43 -18 85 -62 100 -104 13 -38 14 -38 -27
-46 -28 -6 -32 -4 -44 23 -17 41 -38 58 -91 72 -94 25 -184 -28 -210 -123 -15
-58 -6 -150 20 -192 45 -73 160 -96 254 -52 35 17 37 21 37 67 l0 49 -75 0
-75 0 0 35 0 35 115 0 115 0 0 -100 0 -100 -42 -27 c-124 -78 -277 -68 -365
23 -119 123 -85 362 62 431 59 27 172 32 226 9z m507 5 c143 -28 156 -218 19
-270 l-28 -11 30 -27 c16 -16 55 -67 85 -115 l56 -88 -47 0 -48 0 -48 75 c-26
41 -61 90 -78 110 -29 33 -34 35 -95 35 l-64 0 0 -110 0 -110 -40 0 -40 0 0
260 0 260 128 0 c70 -1 146 -5 170 -9z m292 -173 c0 -200 9 -240 60 -265 31
-16 87 -16 129 -2 55 19 61 45 61 259 l0 190 40 0 40 0 0 -192 c0 -166 -3
-199 -19 -234 -35 -76 -103 -110 -207 -101 -79 6 -122 30 -154 88 -24 42 -25
53 -28 242 l-4 197 41 0 41 0 0 -182z m759 157 c92 -54 95 -203 4 -262 -20
-14 -54 -19 -138 -23 l-110 -5 -3 -102 -3 -103 -39 0 -40 0 0 261 0 261 148
-4 c124 -3 154 -7 181 -23z m475 11 c98 -41 151 -138 144 -266 -7 -121 -58
-196 -156 -232 -130 -47 -252 4 -310 131 -21 46 -24 63 -20 135 7 118 52 192
143 232 40 17 157 18 199 0z m744 -10 c94 -49 98 -203 5 -263 -20 -14 -54 -19
-138 -23 l-110 -5 -3 -102 -3 -103 -34 0 -35 0 0 261 0 262 143 -5 c109 -3
150 -8 175 -22z m232 -81 l0 -105 125 0 125 0 0 105 0 105 40 0 40 0 0 -260 0
-260 -40 0 -40 0 0 120 0 120 -125 0 -125 0 0 -120 0 -120 -40 0 -40 0 0 260
0 260 40 0 40 0 0 -105z m765 86 c113 -52 166 -183 131 -321 -30 -115 -104
-178 -219 -187 -186 -15 -309 161 -251 356 17 59 79 134 128 156 47 20 163 18
211 -4z m595 -16 l0 -34 -147 -3 -148 -3 -3 -72 -3 -73 141 0 140 0 0 -35 0
-35 -140 0 -140 0 0 -80 0 -80 155 0 155 0 0 -35 0 -35 -195 0 -195 0 0 253
c0 140 3 257 7 260 3 4 89 7 190 7 l183 0 0 -35z m297 -156 l128 -192 3 192 2
191 40 0 40 0 0 -260 0 -260 -40 0 -40 0 -127 191 -128 192 -3 -192 -2 -191
-35 0 -35 0 0 260 0 260 35 0 c34 0 37 -4 162 -191z m403 -69 l0 -260 -40 0
-40 0 0 260 0 260 40 0 40 0 0 -260z m218 181 c31 -44 62 -87 67 -96 8 -14 21
-1 80 77 65 85 74 93 108 96 20 2 37 -1 37 -6 0 -5 -38 -62 -85 -126 l-84
-116 94 -132 94 -133 -35 -3 c-20 -2 -42 -1 -49 2 -7 2 -44 49 -82 104 l-69
99 -74 -103 c-75 -103 -75 -104 -117 -104 -24 0 -43 3 -43 6 0 4 85 121 167
230 l23 31 -85 121 c-47 66 -85 123 -85 126 0 3 18 6 40 6 39 0 42 -3 98 -79z"/>
<path d="M1740 2169 l0 -81 104 4 c110 4 130 12 147 57 13 33 -5 75 -37 90
-14 6 -67 11 -119 11 l-95 0 0 -81z"/>
<path d="M2760 2165 l0 -85 91 0 c120 0 149 15 149 78 0 71 -36 92 -161 92
l-79 0 0 -85z"/>
<path d="M3327 2246 c-49 -18 -64 -32 -89 -79 -28 -55 -23 -192 8 -234 36 -48
82 -73 136 -73 60 0 98 19 135 67 26 34 28 43 28 128 0 81 -3 96 -25 127 -44
65 -121 91 -193 64z"/>
<path d="M3988 2244 c-5 -4 -8 -43 -8 -86 l0 -78 100 0 c87 0 103 3 120 20 26
26 27 89 1 121 -17 22 -29 24 -113 27 -51 2 -96 0 -100 -4z"/>
<path d="M5069 2250 c-79 -24 -114 -84 -114 -200 0 -122 48 -181 152 -187 102
-7 165 51 179 163 8 64 -15 151 -48 181 -47 44 -112 61 -169 43z"/>
</g>
</svg>
