<?xml version="1.0" standalone="no"?>
<!DOCTYPE svg PUBLIC "-//W3C//DTD SVG 20010904//EN"
 "http://www.w3.org/TR/2001/REC-SVG-20010904/DTD/svg10.dtd">
<svg version="1.0" xmlns="http://www.w3.org/2000/svg"
 width="630.000000pt" height="300.000000pt" viewBox="0 0 630.000000 300.000000"
 preserveAspectRatio="xMidYMid meet">

<g transform="translate(0.000000,300.000000) scale(0.100000,-0.100000)"
fill="#000000" stroke="none">
<path d="M3965 1950 c-211 -45 -370 -199 -420 -408 -35 -145 -1 -258 92 -303
64 -31 197 -37 358 -15 180 25 169 20 187 74 23 69 105 304 113 325 7 16 -5
17 -166 17 l-174 0 -23 -64 c-12 -36 -22 -70 -22 -75 0 -7 26 -11 66 -11 53 0
65 -3 61 -14 -3 -8 -11 -33 -18 -56 -16 -51 -51 -70 -133 -70 -62 0 -104 27
-126 80 -18 44 -8 136 20 194 33 67 111 150 163 175 86 42 187 20 187 -39 0
-20 5 -21 103 -18 l102 3 9 48 c13 68 -9 111 -72 140 -37 17 -69 22 -157 23
-60 2 -128 -1 -150 -6z"/>
<path d="M2565 1653 c-59 -164 -118 -326 -131 -361 l-23 -63 106 3 107 3 122
345 c68 190 123 351 123 358 1 9 -25 12 -97 12 l-99 0 -108 -297z"/>
<path d="M3002 1924 c-59 -164 -242 -663 -247 -676 -7 -17 8 -18 221 -18 217
0 232 2 286 24 31 13 75 37 96 55 76 60 115 184 76 240 -9 13 -35 31 -58 42
-34 15 -38 19 -21 24 124 40 195 124 195 231 0 45 -28 74 -80 85 -25 5 -138
12 -251 16 l-206 6 -11 -29z m310 -121 c22 -19 23 -35 4 -72 -20 -38 -55 -51
-135 -51 l-68 0 20 70 21 70 70 0 c51 0 74 -4 88 -17z m-94 -295 c30 -30 5
-96 -48 -123 -30 -15 -160 -21 -160 -7 0 4 10 37 22 75 l22 67 76 0 c46 0 81
-5 88 -12z"/>
<path d="M4545 1940 c-8 -13 -125 -340 -230 -642 l-24 -68 278 0 278 0 25 68
25 67 -174 3 c-129 2 -173 6 -172 15 0 6 10 39 23 72 l23 60 162 5 163 5 19
50 c36 94 50 85 -124 85 -84 0 -156 2 -159 5 -3 3 6 37 21 75 l26 70 171 0
172 0 26 65 c14 36 26 67 26 70 0 10 -549 5 -555 -5z"/>
<path d="M3070 1122 c-32 -26 -33 -93 -3 -124 19 -18 27 -20 50 -12 21 7 28
17 30 42 3 35 -19 54 -40 33 -8 -8 -7 -11 6 -11 11 0 17 -8 17 -25 0 -19 -5
-25 -23 -25 -31 0 -47 18 -47 53 0 56 37 86 68 55 9 -9 12 -9 12 0 0 10 -30
32 -43 32 -3 0 -15 -8 -27 -18z"/>
<path d="M1250 1060 c0 -40 4 -70 10 -70 6 0 10 30 10 70 0 40 -4 70 -10 70
-6 0 -10 -30 -10 -70z"/>
<path d="M1990 1061 l0 -71 39 0 c31 0 41 4 46 20 3 11 3 25 -1 31 -4 7 -7 28
-8 48 -1 34 -3 36 -38 39 l-38 3 0 -70z m65 34 c0 -13 -8 -21 -22 -23 -19 -3
-23 1 -23 23 0 22 4 26 23 23 14 -2 22 -10 22 -23z m3 -67 c-2 -15 -11 -24
-25 -26 -19 -3 -23 1 -23 22 0 21 5 26 26 26 21 0 25 -4 22 -22z"/>
<path d="M2345 1120 c3 -5 8 -10 11 -10 2 0 4 5 4 10 0 6 -5 10 -11 10 -5 0
-7 -4 -4 -10z"/>
<path d="M2393 1060 c0 -41 2 -58 4 -37 2 20 2 54 0 75 -2 20 -4 3 -4 -38z"/>
<path d="M2850 1107 c0 -18 -5 -23 -27 -22 -26 0 -28 -4 -31 -41 -3 -46 12
-66 46 -57 20 5 22 12 22 74 0 38 -2 69 -5 69 -3 0 -5 -10 -5 -23z m-2 -76
c-2 -18 -9 -26 -23 -26 -24 0 -33 38 -14 61 17 21 41 -2 37 -35z"/>
<path d="M3640 1110 c0 -11 -5 -20 -11 -20 -8 0 -8 -4 -1 -13 6 -7 12 -30 15
-52 l4 -40 1 42 c1 23 8 44 15 47 10 5 10 7 0 12 -7 3 -13 12 -13 19 0 7 6 16
13 18 7 3 5 6 -5 6 -12 1 -18 -6 -18 -19z"/>
<path d="M4050 1060 l0 -70 38 2 c36 1 36 1 5 5 -27 4 -33 9 -33 29 0 20 5 24
30 24 17 0 30 5 30 10 0 6 -14 10 -31 10 -26 0 -30 3 -27 22 2 16 12 25 33 29
29 6 29 7 -7 8 l-38 1 0 -70z"/>
<path d="M4466 1114 c-5 -14 -4 -15 9 -4 17 14 19 20 6 20 -5 0 -12 -7 -15
-16z"/>
<path d="M1492 1094 c-7 -8 -8 -15 -2 -19 6 -3 10 -24 10 -45 0 -38 14 -60 28
-45 4 4 1 10 -5 12 -15 5 -17 64 -4 79 6 5 5 13 -3 20 -8 8 -15 7 -24 -2z"/>
<path d="M1597 1097 c-5 -12 -2 -42 9 -94 4 -22 34 -33 34 -13 0 6 -4 10 -10
10 -15 0 -12 68 2 72 9 3 8 9 -4 21 -20 20 -24 21 -31 4z"/>
<path d="M1763 1095 c-8 -9 -9 -16 -3 -20 6 -3 10 -24 10 -45 0 -21 5 -42 11
-45 16 -10 24 4 11 17 -18 18 -15 59 6 74 16 13 16 13 -1 14 -10 0 -15 5 -12
10 9 15 -8 11 -22 -5z"/>
<path d="M4238 1098 c-3 -7 -2 -35 1 -63 4 -36 11 -51 24 -53 9 -2 17 1 17 7
0 6 -4 11 -10 11 -13 0 -13 67 0 75 6 4 5 12 -4 21 -18 17 -23 18 -28 2z"/>
<path d="M4398 1098 c-3 -7 -2 -35 1 -63 4 -36 11 -51 24 -53 9 -2 17 1 17 7
0 6 -4 11 -10 11 -13 0 -13 67 0 75 6 4 5 12 -4 21 -18 17 -23 18 -28 2z"/>
<path d="M4592 1094 c-7 -8 -8 -15 -2 -19 6 -3 10 -24 10 -45 0 -38 14 -60 28
-45 4 4 1 10 -5 12 -17 6 -17 70 -1 75 10 4 9 8 -2 20 -13 12 -18 13 -28 2z"/>
<path d="M1302 1036 c1 -42 2 -45 5 -14 4 39 28 67 43 52 5 -5 11 -27 13 -49
3 -33 4 -31 3 10 -1 49 -1 50 -33 51 l-33 1 2 -51z"/>
<path d="M1407 1084 c-15 -15 -6 -41 18 -52 14 -6 25 -16 25 -22 0 -14 -37
-12 -44 3 -3 6 -5 3 -3 -8 2 -14 10 -20 27 -20 20 0 26 6 28 27 3 22 -2 29
-22 34 -27 6 -33 18 -16 29 6 4 18 1 27 -7 14 -11 16 -11 11 2 -5 16 -39 25
-51 14z"/>
<path d="M1550 1040 c0 -27 5 -50 10 -50 6 0 10 23 10 50 0 28 -4 50 -10 50
-5 0 -10 -22 -10 -50z"/>
<path d="M1661 1049 c-1 -54 16 -75 51 -62 21 7 22 12 17 58 l-6 50 -1 -47
c-2 -41 -5 -48 -22 -48 -19 0 -24 10 -33 70 -3 14 -5 4 -6 -21z"/>
<path d="M1835 1080 c-13 -20 -8 -71 9 -88 27 -27 51 -4 51 49 0 40 -2 44 -27
47 -14 2 -29 -2 -33 -8z m53 -49 c-2 -18 -9 -26 -23 -26 -24 0 -33 38 -14 61
17 21 41 -2 37 -35z"/>
<path d="M2102 1035 c1 -44 2 -45 5 -12 2 21 11 41 19 44 21 8 17 22 -6 20
-17 -1 -20 -8 -18 -52z"/>
<path d="M2167 1076 c-7 -18 8 -22 18 -6 9 15 25 12 25 -4 0 -8 -11 -17 -25
-20 -18 -5 -25 -13 -25 -30 0 -27 18 -37 50 -29 18 5 21 12 18 52 -3 41 -6 46
-29 49 -17 2 -29 -3 -32 -12z m43 -56 c0 -19 -20 -27 -33 -13 -8 7 11 33 24
33 5 0 9 -9 9 -20z"/>
<path d="M2260 1075 c-15 -18 -6 -33 28 -46 19 -8 23 -12 13 -22 -9 -9 -16 -9
-32 2 -17 10 -20 10 -17 0 8 -24 35 -34 52 -20 23 19 20 40 -9 53 -27 12 -31
23 -14 34 6 3 15 0 20 -7 4 -7 11 -10 14 -7 11 11 -5 28 -24 28 -10 0 -24 -7
-31 -15z"/>
<path d="M2347 1083 c-11 -10 -8 -93 3 -93 6 0 10 23 10 50 0 51 -1 55 -13 43z"/>
<path d="M2436 1074 c-20 -51 8 -109 42 -88 9 6 18 16 20 23 3 10 0 10 -17 0
-16 -11 -23 -11 -33 -1 -15 15 -8 21 25 24 17 2 27 8 27 18 0 36 -52 55 -64
24z m44 -9 c11 -13 8 -15 -14 -15 -25 0 -33 10 -19 23 10 11 19 8 33 -8z"/>
<path d="M2528 1040 c-1 -28 0 -50 5 -50 4 0 7 23 7 50 0 65 -7 65 -12 0z"/>
<path d="M2572 1035 c1 -44 2 -45 5 -12 2 21 11 41 19 44 21 8 17 22 -6 20
-17 -1 -20 -8 -18 -52z"/>
<path d="M2642 1078 c-17 -17 -15 -73 3 -88 34 -28 74 24 56 73 -11 29 -38 36
-59 15z m43 -39 c0 -27 -4 -34 -20 -34 -24 0 -33 38 -14 61 19 23 34 11 34
-27z"/>
<path d="M2902 1078 c-17 -17 -15 -73 4 -89 17 -14 44 -3 53 22 4 12 2 12 -12
0 -18 -14 -47 -9 -47 9 0 5 14 10 30 10 30 0 37 11 24 44 -7 19 -35 21 -52 4z
m42 -13 c4 -11 -2 -15 -21 -15 -21 0 -24 2 -13 15 7 8 16 15 20 15 4 0 10 -7
14 -15z"/>
<path d="M3180 1071 c-23 -45 0 -99 38 -87 12 4 22 15 21 24 0 11 -3 12 -6 5
-8 -21 -43 -16 -43 6 0 14 6 17 24 14 29 -6 40 10 26 37 -14 25 -46 26 -60 1z
m48 -9 c2 -7 -6 -12 -17 -12 -21 0 -27 11 -14 24 9 9 26 2 31 -12z"/>
<path d="M3282 1078 c-17 -17 -15 -73 3 -88 34 -28 74 24 56 73 -11 29 -38 36
-59 15z m43 -39 c0 -27 -4 -34 -20 -34 -24 0 -33 38 -14 61 19 23 34 11 34
-27z"/>
<path d="M3380 1075 c-6 -7 -10 -29 -8 -47 3 -29 7 -33 31 -33 16 1 27 -5 27
-12 0 -20 -28 -27 -45 -13 -8 7 -15 8 -15 2 0 -21 28 -34 49 -22 18 9 21 20
21 73 0 59 -1 63 -24 65 -13 1 -29 -5 -36 -13z m46 -49 c-3 -14 -13 -26 -21
-26 -20 0 -30 46 -14 66 19 23 44 -5 35 -40z"/>
<path d="M3470 1040 c0 -27 5 -50 10 -50 6 0 10 18 10 40 0 22 5 40 10 40 6 0
10 5 10 10 0 6 -9 10 -20 10 -17 0 -20 -7 -20 -50z"/>
<path d="M3547 1084 c-14 -14 -7 -26 8 -14 8 6 19 9 25 5 17 -10 11 -23 -11
-27 -12 -2 -27 -11 -33 -20 -15 -24 11 -50 42 -41 20 5 23 11 20 52 -2 37 -7
47 -23 49 -12 2 -24 0 -28 -4z m38 -65 c0 -7 -8 -15 -17 -17 -18 -3 -25 18
-11 32 10 10 28 1 28 -15z"/>
<path d="M3697 1083 c-11 -10 -8 -93 3 -93 6 0 10 23 10 50 0 51 -1 55 -13 43z"/>
<path d="M3747 1084 c-14 -14 -7 -26 8 -14 8 6 19 9 25 5 17 -10 11 -25 -10
-25 -27 0 -43 -32 -27 -54 9 -12 20 -16 38 -11 23 6 24 9 19 53 -4 38 -9 48
-25 50 -12 2 -24 0 -28 -4z m43 -64 c0 -13 -7 -20 -20 -20 -22 0 -28 25 -7 33
22 10 27 7 27 -13z"/>
<path d="M3902 1078 c-17 -17 -15 -73 4 -89 17 -14 44 -3 53 22 4 12 2 12 -12
0 -18 -14 -47 -9 -47 9 0 5 14 10 30 10 30 0 37 11 24 44 -7 19 -35 21 -52 4z
m38 -13 c11 -13 8 -15 -15 -15 -23 0 -26 2 -15 15 7 8 14 15 15 15 1 0 8 -7
15 -15z"/>
<path d="M4150 1075 c-15 -18 -6 -33 28 -46 19 -8 23 -12 13 -22 -9 -9 -16 -9
-32 2 -17 10 -20 10 -17 0 8 -24 35 -34 52 -20 23 19 20 40 -9 53 -27 12 -31
23 -14 34 6 3 15 0 20 -7 4 -7 11 -10 14 -7 11 11 -5 28 -24 28 -10 0 -24 -7
-31 -15z"/>
<path d="M4305 1079 c-4 -6 -4 -13 0 -17 3 -3 10 0 14 7 5 7 14 10 20 7 18
-12 13 -23 -14 -30 -18 -5 -25 -13 -25 -31 0 -30 12 -37 45 -29 20 5 25 12 25
39 0 18 -3 40 -6 49 -7 18 -49 22 -59 5z m45 -59 c0 -13 -7 -20 -20 -20 -22 0
-28 25 -7 33 22 10 27 7 27 -13z"/>
<path d="M4463 1040 c0 -30 2 -43 4 -27 2 15 2 39 0 55 -2 15 -4 2 -4 -28z"/>
<path d="M4507 1084 c-15 -15 -6 -41 18 -52 26 -12 34 -32 12 -32 -7 0 -18 5
-25 12 -9 9 -12 8 -12 -4 0 -25 41 -34 56 -13 16 22 9 39 -23 54 -19 9 -23 15
-15 23 8 8 16 7 28 -3 15 -12 17 -12 12 1 -5 16 -39 25 -51 14z"/>
<path d="M4663 1040 c0 -30 2 -43 4 -27 2 15 2 39 0 55 -2 15 -4 2 -4 -28z"/>
<path d="M4704 1076 c-10 -26 1 -79 18 -90 14 -8 22 -7 35 6 9 10 13 21 9 25
-4 4 -11 1 -16 -6 -14 -23 -40 -5 -40 28 0 33 16 49 33 32 16 -16 27 -14 21 4
-8 19 -53 20 -60 1z"/>
<path d="M4800 1074 c0 -13 3 -14 15 -4 8 6 19 9 25 5 17 -10 11 -23 -11 -27
-12 -2 -27 -11 -33 -20 -15 -24 11 -50 42 -41 20 5 23 11 20 52 -3 42 -5 46
-30 49 -21 3 -28 -1 -28 -14z m44 -42 c9 -15 -12 -35 -29 -28 -14 5 -15 9 -5
21 14 17 26 19 34 7z"/>
</g>
</svg>
