<?xml version="1.0" standalone="no"?>
<!DOCTYPE svg PUBLIC "-//W3C//DTD SVG 20010904//EN"
 "http://www.w3.org/TR/2001/REC-SVG-20010904/DTD/svg10.dtd">
<svg version="1.0" xmlns="http://www.w3.org/2000/svg"
 width="630.000000pt" height="300.000000pt" viewBox="0 0 630.000000 300.000000"
 preserveAspectRatio="xMidYMid meet">

<g transform="translate(0.000000,300.000000) scale(0.100000,-0.100000)"
fill="#000000" stroke="none">
<path d="M2473 1823 c-180 -174 -297 -281 -305 -277 -6 4 -8 3 -5 -3 4 -6 -5
-21 -20 -34 l-26 -24 18 28 c9 15 14 27 10 27 -4 0 -3 6 3 13 12 15 14 43 13
164 -1 78 -3 91 -16 87 -13 -5 -14 -2 -6 19 5 14 7 28 4 31 -4 3 2 15 13 27
19 21 19 19 24 -152 l6 -174 2 184 2 183 -167 -160 c-93 -88 -217 -210 -276
-269 l-108 -109 -2 -192 c-1 -106 -2 -192 -1 -192 0 0 85 86 189 190 104 105
193 190 197 190 4 0 9 -86 10 -190 l3 -191 368 375 367 375 -2 179 -3 180
-292 -285z m266 -99 c-12 -13 -26 -21 -31 -18 -5 3 -7 2 -6 -3 2 -4 -1 -10 -7
-13 -6 -3 -11 47 -12 139 -2 105 -6 147 -15 153 -10 6 -10 8 1 8 8 0 11 3 7 7
-3 4 13 26 36 50 l43 44 3 -172 c2 -165 2 -173 -19 -195z m-64 -53 c3 -5 1
-12 -5 -16 -5 -3 -10 1 -10 9 0 18 6 21 15 7z"/>
<path d="M2683 1995 c0 -8 4 -12 9 -9 5 3 6 10 3 15 -9 13 -12 11 -12 -6z"/>
<path d="M1332 1467 l-92 -93 2 -187 3 -187 105 107 c58 59 90 94 73 78 -29
-26 -33 -27 -34 -9 0 10 0 89 0 174 0 140 2 157 21 182 11 15 19 28 18 28 -2
0 -45 -42 -96 -93z"/>
<path d="M3410 1457 c-100 -28 -161 -91 -182 -188 -33 -158 109 -307 271 -285
146 20 243 153 212 291 -30 132 -171 217 -301 182z m130 -89 c112 -57 120
-205 16 -282 -39 -29 -133 -29 -172 0 -54 39 -69 71 -69 137 0 76 27 120 89
148 54 24 82 24 136 -3z"/>
<path d="M2660 1443 c0 -28 -29 -352 -36 -405 l-6 -48 40 0 40 0 7 68 c3 37 9
97 13 135 l7 67 70 -135 c54 -105 74 -135 90 -135 16 0 36 31 91 136 l70 135
13 -136 13 -135 39 0 c47 0 45 -17 24 228 -22 248 -21 244 -53 240 -24 -3 -36
-22 -111 -167 l-83 -163 -86 166 c-80 155 -88 166 -114 166 -20 0 -28 -5 -28
-17z"/>
<path d="M3790 1225 l0 -237 113 4 c130 5 172 21 230 89 78 90 66 237 -24 313
-53 45 -97 58 -211 64 l-108 5 0 -238z m202 145 c85 -24 128 -126 90 -213 -26
-59 -77 -87 -157 -87 l-55 0 0 155 0 155 43 0 c23 0 59 -5 79 -10z"/>
<path d="M4300 1234 c-52 -124 -96 -230 -98 -235 -2 -5 16 -9 40 -9 41 0 45 2
57 35 l12 35 100 0 99 0 17 -35 c15 -32 20 -35 61 -35 24 0 42 4 40 8 -1 5
-46 111 -98 235 -80 192 -98 227 -115 227 -18 0 -36 -35 -115 -226z m149 -17
c17 -43 31 -80 31 -82 0 -3 -29 -5 -65 -5 -36 0 -65 3 -65 8 0 11 62 163 65
160 2 -2 17 -38 34 -81z"/>
<path d="M4700 1225 l0 -235 140 0 140 0 0 40 0 40 -100 0 -100 0 0 195 0 195
-40 0 -40 0 0 -235z"/>
</g>
</svg>
