<?xml version="1.0" standalone="no"?>
<!DOCTYPE svg PUBLIC "-//W3C//DTD SVG 20010904//EN"
 "http://www.w3.org/TR/2001/REC-SVG-20010904/DTD/svg10.dtd">
<svg version="1.0" xmlns="http://www.w3.org/2000/svg"
 width="630.000000pt" height="300.000000pt" viewBox="0 0 630.000000 300.000000"
 preserveAspectRatio="xMidYMid meet">

<g transform="translate(0.000000,300.000000) scale(0.100000,-0.100000)"
fill="#000000" stroke="none">
<path d="M1095 1915 l-25 -24 0 -433 c1 -325 4 -437 13 -449 27 -36 53 -39
287 -39 l232 0 29 29 29 29 0 427 0 427 -29 29 -29 29 -242 0 -241 0 -24 -25z
m518 -14 c15 -12 17 -56 17 -442 0 -375 -2 -429 -16 -443 -13 -14 -50 -16
-254 -16 -235 0 -239 0 -254 22 -14 19 -16 77 -16 431 0 270 4 415 11 428 6
11 20 24 32 29 12 5 121 8 243 7 170 -2 225 -5 237 -16z"/>
<path d="M1132 1878 c-7 -7 -12 -34 -12 -60 l0 -48 245 0 245 0 0 48 c0 26 -5
53 -12 60 -17 17 -449 17 -466 0z m95 -37 c-3 -15 -1 -33 5 -39 7 -7 8 -15 4
-19 -4 -5 -16 2 -26 15 -22 27 -30 28 -30 2 0 -11 -4 -20 -10 -20 -5 0 -10 20
-10 45 l0 45 36 0 c35 0 36 -1 31 -29z m103 9 c15 -29 3 -59 -26 -66 -30 -8
-54 11 -54 40 0 46 59 64 80 26z m42 -15 c-4 -30 -1 -35 17 -35 12 0 21 -4 21
-10 0 -5 -13 -10 -30 -10 -29 0 -30 2 -30 45 0 30 4 45 13 45 9 0 12 -11 9
-35z m78 0 c0 -28 4 -35 20 -35 11 0 20 -4 20 -10 0 -5 -13 -10 -30 -10 -29 0
-30 2 -30 45 0 25 5 45 10 45 6 0 10 -16 10 -35z m120 24 c0 -6 -9 -9 -20 -6
-11 3 -20 1 -20 -4 0 -5 6 -9 13 -9 23 0 37 -21 26 -42 -10 -19 -54 -25 -64
-8 -4 6 5 10 19 10 14 0 26 5 26 10 0 6 -6 10 -14 10 -22 0 -38 24 -24 38 15
15 58 16 58 1z"/>
<path d="M1180 1840 c0 -5 7 -10 15 -10 8 0 15 5 15 10 0 6 -7 10 -15 10 -8 0
-15 -4 -15 -10z"/>
<path d="M1272 1828 c4 -27 33 -36 42 -13 8 22 -1 35 -25 35 -15 0 -20 -6 -17
-22z"/>
<path d="M1120 1455 l0 -285 243 2 242 3 3 283 2 282 -245 0 -245 0 0 -285z
m281 229 c38 -19 63 -75 54 -120 -3 -19 -19 -45 -40 -63 l-34 -30 24 -44 c14
-24 31 -64 39 -88 7 -24 17 -52 21 -61 6 -16 1 -18 -38 -18 l-45 0 5 44 c4 33
-1 57 -20 99 l-25 55 -48 -5 c-27 -3 -51 -7 -53 -9 -9 -8 1 -159 11 -171 8
-10 -1 -13 -41 -13 -47 0 -65 10 -41 25 14 8 13 370 0 396 -10 18 -6 19 95 19
77 0 114 -4 136 -16z m92 -55 c69 -31 75 -152 10 -192 -18 -11 -16 -24 6 -55
10 -15 30 -60 43 -99 l25 -73 -41 0 -42 0 4 36 c5 42 -21 116 -54 151 -30 32
-30 37 1 51 14 6 33 27 42 46 15 33 15 37 -5 85 -30 68 -30 69 11 50z m-153
-206 c24 -21 26 -33 5 -33 -12 0 -15 -15 -15 -79 0 -44 5 -83 10 -86 22 -14 7
-24 -33 -22 l-42 2 3 105 c2 58 5 111 7 118 6 17 41 15 65 -5z"/>
<path d="M1240 1668 c-1 -2 -2 -45 -3 -96 l-2 -92 33 0 c40 0 108 33 122 59
18 34 12 80 -15 106 -20 21 -34 25 -80 25 -30 0 -55 -1 -55 -2z m124 -24 c25
-10 19 -34 -9 -34 -24 0 -25 -3 -25 -54 0 -47 -3 -54 -22 -60 -13 -3 -26 -6
-30 -6 -5 0 -8 31 -8 68 0 40 -5 73 -12 80 -9 9 -1 12 39 12 28 0 58 -3 67 -6z"/>
<path d="M1120 1095 c0 -43 4 -56 19 -65 12 -6 103 -10 226 -10 123 0 214 4
226 10 15 9 19 22 19 65 l0 55 -245 0 -245 0 0 -55z m107 -13 l1 -44 -24 23
-24 22 0 -21 c0 -12 -4 -22 -10 -22 -5 0 -10 21 -10 46 0 45 0 45 33 42 30 -3
32 -5 34 -46z m91 36 c25 -25 2 -78 -33 -78 -7 0 -21 7 -29 16 -9 8 -16 22
-16 29 0 35 53 58 78 33z m48 -5 c12 -17 13 -17 19 0 4 9 14 17 22 17 11 0 10
-6 -6 -29 -12 -16 -21 -36 -21 -45 0 -9 -4 -16 -10 -16 -5 0 -10 11 -10 24 0
13 -7 29 -15 36 -8 7 -15 16 -15 21 0 15 22 10 36 -8z m119 7 c4 -6 -5 -10
-20 -10 -22 0 -26 -4 -23 -22 2 -14 12 -25 28 -29 23 -6 23 -7 6 -14 -38 -16
-73 37 -46 71 14 16 46 19 55 4z m85 0 c0 -5 -9 -10 -20 -10 -11 0 -20 -5 -20
-11 0 -5 4 -8 9 -4 5 3 12 1 16 -5 3 -5 -1 -10 -9 -10 -9 0 -16 -4 -16 -10 0
-5 9 -10 20 -10 11 0 20 -4 20 -10 0 -5 -13 -10 -30 -10 -29 0 -30 2 -30 45 0
43 1 45 30 45 17 0 30 -4 30 -10z"/>
<path d="M1180 1100 c0 -5 7 -10 15 -10 8 0 15 5 15 10 0 6 -7 10 -15 10 -8 0
-15 -4 -15 -10z"/>
<path d="M1267 1097 c-3 -8 -2 -20 3 -27 11 -18 42 -4 38 17 -4 22 -34 29 -41
10z"/>
<path d="M2730 1465 l0 -255 40 0 40 0 0 255 0 255 -40 0 -40 0 0 -255z"/>
<path d="M2900 1465 l0 -255 40 0 40 0 0 255 0 255 -40 0 -40 0 0 -255z"/>
<path d="M1960 1456 l0 -246 40 0 40 0 0 100 0 100 36 0 c68 0 93 -30 115
-138 l13 -62 44 0 44 0 -7 36 c-15 81 -46 164 -68 179 l-22 15 27 23 c71 60
64 165 -16 213 -24 14 -57 19 -138 22 l-108 4 0 -246z m204 153 c64 -51 5
-139 -94 -139 l-30 0 0 80 0 80 49 0 c34 0 56 -6 75 -21z"/>
<path d="M3550 1456 l0 -246 40 0 40 0 0 100 0 100 36 0 c67 0 93 -31 117
-137 l13 -58 43 -3 43 -3 -6 38 c-14 76 -37 143 -59 169 l-23 26 33 33 c28 28
33 40 33 79 0 106 -45 138 -202 144 l-108 4 0 -246z m207 152 c31 -29 31 -77
0 -107 -15 -14 -42 -24 -75 -28 l-52 -6 0 82 0 81 52 0 c39 0 57 -5 75 -22z"/>
<path d="M5250 1599 c-15 -26 -5 -65 17 -73 16 -6 16 -6 0 12 -21 23 -22 46
-1 66 8 9 11 16 5 16 -6 0 -15 -9 -21 -21z"/>
<path d="M5324 1604 c21 -20 20 -43 -1 -66 -16 -18 -16 -18 0 -12 33 12 29 94
-4 94 -6 0 -3 -7 5 -16z"/>
<path d="M5302 1574 c-1 -13 0 -24 2 -24 7 0 14 40 7 44 -4 3 -8 -6 -9 -20z"/>
<path d="M2434 1560 c-49 -15 -101 -80 -109 -134 -15 -95 19 -171 89 -205 125
-61 256 22 256 164 0 64 -34 133 -77 158 -38 21 -116 30 -159 17z m126 -85
c35 -38 39 -119 8 -165 -19 -28 -31 -36 -62 -38 -50 -4 -82 18 -97 67 -15 50
-4 107 26 137 34 34 93 33 125 -1z"/>
<path d="M3133 1559 c-72 -21 -98 -112 -45 -161 15 -15 46 -34 70 -43 50 -20
67 -59 37 -82 -22 -16 -48 -17 -94 -3 -40 11 -37 12 -46 -21 -6 -23 -3 -28 26
-38 45 -15 92 -14 139 5 93 38 92 148 -2 189 -55 24 -78 43 -78 67 0 28 40 42
83 30 21 -6 37 -7 37 -4 0 4 3 17 6 29 5 18 0 23 -33 32 -44 13 -56 13 -100 0z"/>
<path d="M4026 1560 c-99 -30 -146 -166 -93 -270 41 -83 143 -113 233 -69 53
25 83 71 91 138 16 138 -101 239 -231 201z m119 -84 c30 -30 41 -87 26 -137
-21 -71 -99 -96 -148 -47 -47 47 -41 157 11 193 32 23 83 19 111 -9z"/>
<path d="M4741 1560 c-78 -19 -124 -76 -129 -163 -8 -123 57 -192 180 -192 75
0 92 10 83 48 -6 23 -9 24 -41 15 -101 -27 -174 71 -130 176 17 41 61 60 120
54 41 -5 45 -3 51 20 3 14 2 28 -2 33 -13 12 -95 18 -132 9z"/>
<path d="M5015 1555 c-81 -28 -129 -129 -106 -221 16 -63 36 -90 85 -114 48
-23 96 -25 161 -9 42 11 44 13 38 38 -3 14 -6 27 -7 28 -1 1 -21 -2 -45 -8
-80 -18 -147 13 -153 71 l-3 25 118 3 c113 3 117 3 117 25 0 78 -48 150 -109
167 -45 12 -47 12 -96 -5z m99 -66 c15 -12 26 -30 26 -45 0 -25 -1 -25 -77
-22 -72 3 -78 5 -75 23 4 27 48 65 76 65 13 0 35 -9 50 -21z"/>
<path d="M4280 1513 c10 -26 41 -104 68 -173 46 -115 49 -127 36 -152 -18 -35
-61 -68 -90 -68 -21 0 -24 -5 -24 -36 l0 -37 41 6 c57 8 107 51 146 128 30 61
143 352 143 370 0 5 -17 9 -39 9 l-38 0 -39 -115 c-21 -63 -41 -115 -44 -115
-3 0 -23 51 -46 113 l-40 112 -46 3 -46 3 18 -48z"/>
<path d="M3320 1440 l0 -30 80 0 80 0 0 30 0 30 -80 0 -80 0 0 -30z"/>
</g>
</svg>
