<?xml version="1.0" standalone="no"?>
<!DOCTYPE svg PUBLIC "-//W3C//DTD SVG 20010904//EN"
 "http://www.w3.org/TR/2001/REC-SVG-20010904/DTD/svg10.dtd">
<svg version="1.0" xmlns="http://www.w3.org/2000/svg"
 width="630.000000pt" height="300.000000pt" viewBox="0 0 630.000000 300.000000"
 preserveAspectRatio="xMidYMid meet">

<g transform="translate(0.000000,300.000000) scale(0.100000,-0.100000)"
fill="#000000" stroke="none">
<path d="M1900 1513 l0 -343 -139 0 c-125 0 -141 2 -165 21 l-26 20 0 320 0
319 -85 0 -85 0 0 -328 0 -328 28 -55 c53 -105 112 -121 422 -117 l215 3 3
412 2 412 -85 3 -85 3 0 -342z"/>
<path d="M2462 1852 l-232 -2 2 -413 3 -412 83 -3 82 -3 0 346 0 345 140 0
c136 0 142 -1 165 -25 l25 -24 0 -321 0 -320 85 0 85 0 0 323 c0 200 -4 337
-11 361 -6 21 -30 59 -52 83 -60 63 -93 69 -375 65z"/>
<path d="M3552 1843 c-58 -15 -125 -81 -141 -139 -7 -24 -11 -161 -11 -361 l0
-323 85 0 85 0 0 150 0 150 190 0 191 0 -3 73 -3 72 -187 3 -188 2 0 96 c0 87
2 97 25 119 l24 25 226 0 225 0 0 70 0 69 -235 3 c-160 2 -251 -1 -283 -9z"/>
<path d="M4313 1852 l-83 -3 0 -163 c0 -223 22 -290 113 -339 38 -20 59 -22
215 -25 l172 -4 0 -53 c0 -46 -4 -57 -26 -74 -25 -20 -39 -21 -251 -21 l-224
0 3 -72 3 -73 215 -3 c308 -5 376 15 426 121 24 52 24 54 24 380 l0 327 -85 0
-85 0 0 -196 0 -196 -140 4 c-192 4 -183 -6 -190 221 l-5 172 -82 -3z"/>
</g>
</svg>
